<?xml version="1.0" ?><svg style="enable-background:new 0 0 48 48;" version="1.1" viewBox="0 0 48 48" xml:space="preserve" xmlns="http://www.w3.org/2000/svg" xmlns:xlink="http://www.w3.org/1999/xlink"><g id="Icons"><g><g><path d="M25.93409,26.19766c-0.08,0.49994,0.11474,0.84923,0.71474,1.1192     c0.78,0.34996,1.64,0.48994,2.44,0.78991c0.69,0.25997,1.43,0.44995,2.13,0.71992h0.01c0.54,0.20998,1.04,0.45995,1.47,0.81991     c1.24,1.05988,0.96,2.85968,1,4.36951h-7.87h-13.57c0.05-1.51-0.23-3.31,1.01-4.37c0.98-0.83,2.38-1.07,3.6-1.54     c0.81-0.3,1.67-0.44,2.45-0.79c0.62-0.28,0.8-0.68,0.69-1.19" style="fill:#0097D3;"/></g><path d="M22.99883,28.14611c0.01,0,0.01,0,0.02,0c1.26,0,2.27-0.94,2.91-1.94c0.44-0.68,0.75-1.46,1.1-2.19    c0.35-0.75,0.65-1.53,0.88-2.33c0.2-0.66,0.33-1.33,0.36-2.02c0.05-1.35-0.19-2.77-0.98-3.89c-0.11-0.15-0.22-0.29-0.35-0.42    c-0.89-0.91-2.41-1.41-3.92-1.37h-0.04c-1.51-0.04-3.03,0.46-3.92,1.37c-0.13,0.13-0.24,0.27-0.35,0.42    c-0.79,1.12-1.03,2.54-0.98,3.89c0.03,0.69,0.16,1.36,0.36,2.02c0.23,0.8,0.53,1.58,0.88,2.33c0.35,0.73,0.66,1.51,1.1,2.19    c0.64,1,1.65,1.94,2.91,1.94C22.98883,28.14611,22.98883,28.14611,22.99883,28.14611z" style="fill:#F9D9C0;"/><g><path d="     M25.93409,26.19766c-0.08,0.49994,0.11474,0.84923,0.71474,1.1192c0.78,0.34996,1.64,0.48994,2.44,0.78991     c0.69,0.25997,1.43,0.44995,2.13,0.71992h0.01c0.54,0.20998,1.04,0.45995,1.47,0.81991c1.24,1.05988,0.96,2.85968,1,4.36951     h-7.87h-13.57c0.05-1.51-0.23-3.31,1.01-4.37c0.98-0.83,2.38-1.07,3.6-1.54c0.81-0.3,1.67-0.44,2.45-0.79     c0.62-0.28,0.8-0.68,0.69-1.19" style="fill:none;stroke:#303030;stroke-width:0.7;stroke-linecap:round;stroke-linejoin:round;stroke-miterlimit:10;"/></g><path d="    M22.99883,28.14611c0.01,0,0.01,0,0.02,0c1.26,0,2.27-0.94,2.91-1.94c0.44-0.68,0.75-1.46,1.1-2.19c0.35-0.75,0.65-1.53,0.88-2.33    c0.2-0.66,0.33-1.33,0.36-2.02c0.05-1.35-0.19-2.77-0.98-3.89c-0.11-0.15-0.22-0.29-0.35-0.42c-0.89-0.91-2.41-1.41-3.92-1.37    h-0.04c-1.51-0.04-3.03,0.46-3.92,1.37c-0.13,0.13-0.24,0.27-0.35,0.42c-0.79,1.12-1.03,2.54-0.98,3.89    c0.03,0.69,0.16,1.36,0.36,2.02c0.23,0.8,0.53,1.58,0.88,2.33c0.35,0.73,0.66,1.51,1.1,2.19c0.64,1,1.65,1.94,2.91,1.94    C22.98883,28.14611,22.98883,28.14611,22.99883,28.14611z" style="fill:none;stroke:#303030;stroke-width:0.7;stroke-linecap:round;stroke-linejoin:round;stroke-miterlimit:10;"/><line style="fill:none;stroke:#303030;stroke-width:0.7;stroke-linecap:round;stroke-linejoin:round;stroke-miterlimit:10;" x1="33.71887" x2="33.71887" y1="15.76884" y2="19.81343"/><line style="fill:none;stroke:#303030;stroke-width:0.7;stroke-linecap:round;stroke-linejoin:round;stroke-miterlimit:10;" x1="35.74117" x2="31.69658" y1="17.79114" y2="17.79114"/></g></g></svg>